<svg xmlns="http://www.w3.org/2000/svg" width="17" height="17" fill="none"><path fill="#fff" d="M14.079 4.231c-.06-.227-.184-.468-.274-.68C12.716.937 10.34 0 8.42 0 5.85 0 3.022 1.723 2.644 5.274v.725c0 .03.01.302.026.438.211 1.693 1.547 3.491 2.544 5.183C6.287 13.434 7.4 15.217 8.504 17c.68-1.164 1.357-2.342 2.022-3.476.18-.332.391-.664.572-.982.121-.211.352-.423.458-.62 1.073-1.964 2.8-3.943 2.8-5.893v-.8c0-.212-.262-.952-.277-.998ZM8.468 7.873c-.755 0-1.582-.378-1.99-1.42-.06-.166-.056-.5-.056-.53v-.468c0-1.33 1.129-1.934 2.111-1.934 1.209 0 2.144.967 2.144 2.176 0 1.21-1 2.176-2.21 2.176Z"/></svg>